<svg width="161" height="195" viewBox="0 0 161 195" fill="none" xmlns="http://www.w3.org/2000/svg">
<rect width="161" height="161" rx="12.88" fill="white"/>
<path d="M50.9099 94.2258L45 22L115.58 22.1451L109.331 94.2258L80.5563 102.558L50.9099 94.2258Z" fill="#3871B5"/>
<path d="M80.5562 95.5821V28.8786L109.621 28.9754L104.438 88.6551L80.5562 95.5821Z" fill="#3871B5"/>
<path d="M102.404 37.4045H57.6918L58.903 46.1234H80.1203L59.2423 55.0853L60.453 63.5139H91.2138L90.0993 75.2848L79.6842 77.3196L70.2385 74.8978L69.5117 68.2126H60.8405L62.0029 82.1156L80.6046 87.2988L98.4317 81.6313L100.709 54.4553H81.8636L102.403 45.9298L102.404 37.4045Z" fill="white"/>
<path d="M72.6245 131.602C72.7846 131.602 72.9266 131.664 73.0505 131.788L74.2083 133.044C73.5675 133.838 72.7774 134.446 71.838 134.868C70.9059 135.291 69.7845 135.502 68.4737 135.502C67.3012 135.502 66.2454 135.301 65.306 134.901C64.3739 134.5 63.5765 133.943 62.9139 133.23C62.2512 132.516 61.7414 131.664 61.3846 130.674C61.0351 129.683 60.8603 128.602 60.8603 127.43C60.8603 126.243 61.0497 125.158 61.4283 124.174C61.8069 123.184 62.3386 122.332 63.0231 121.618C63.7149 120.905 64.5377 120.351 65.4917 119.958C66.4457 119.558 67.5016 119.357 68.6594 119.357C69.81 119.357 70.8294 119.547 71.7179 119.925C72.6136 120.304 73.3745 120.799 74.0008 121.411L73.0177 122.776C72.9594 122.864 72.8829 122.94 72.7883 123.006C72.7009 123.071 72.5771 123.104 72.4169 123.104C72.3077 123.104 72.1948 123.075 72.0783 123.017C71.9619 122.951 71.8343 122.875 71.696 122.787C71.5577 122.693 71.3974 122.591 71.2154 122.481C71.0334 122.372 70.8222 122.274 70.5819 122.186C70.3416 122.092 70.0612 122.015 69.7408 121.957C69.4277 121.892 69.0636 121.859 68.6485 121.859C67.9422 121.859 67.294 121.986 66.7042 122.241C66.1216 122.489 65.6191 122.853 65.1968 123.333C64.7745 123.807 64.4468 124.389 64.2137 125.081C63.9806 125.766 63.8642 126.548 63.8642 127.43C63.8642 128.318 63.988 129.108 64.2356 129.8C64.4905 130.492 64.8326 131.074 65.2623 131.548C65.692 132.021 66.198 132.385 66.7806 132.64C67.3632 132.887 67.9894 133.011 68.6594 133.011C69.0599 133.011 69.4203 132.989 69.7408 132.946C70.0685 132.902 70.3671 132.833 70.6365 132.738C70.9132 132.644 71.1717 132.523 71.412 132.378C71.6596 132.225 71.9036 132.039 72.1439 131.821C72.2166 131.755 72.2931 131.704 72.3732 131.668C72.4534 131.624 72.5371 131.602 72.6245 131.602ZM84.6318 122.405C84.5444 122.558 84.4498 122.671 84.3478 122.744C84.2532 122.809 84.133 122.842 83.9873 122.842C83.8344 122.842 83.667 122.787 83.4849 122.678C83.3101 122.562 83.099 122.434 82.8513 122.296C82.6038 122.157 82.3126 122.034 81.9775 121.924C81.6498 121.808 81.2603 121.75 80.8087 121.75C80.401 121.75 80.0441 121.801 79.7383 121.902C79.4324 121.997 79.174 122.132 78.9627 122.307C78.7589 122.481 78.606 122.693 78.504 122.94C78.4021 123.18 78.351 123.446 78.351 123.738C78.351 124.109 78.453 124.418 78.6569 124.666C78.8681 124.914 79.1449 125.125 79.487 125.3C79.8293 125.474 80.2189 125.631 80.6558 125.769C81.0927 125.908 81.5406 126.057 81.9993 126.217C82.4581 126.37 82.906 126.552 83.3429 126.763C83.7798 126.967 84.1695 127.229 84.5117 127.55C84.854 127.863 85.127 128.249 85.3309 128.708C85.5421 129.166 85.6476 129.723 85.6476 130.379C85.6476 131.092 85.5239 131.762 85.2763 132.389C85.036 133.008 84.6792 133.55 84.2058 134.016C83.7398 134.475 83.1681 134.839 82.4909 135.108C81.8136 135.371 81.0381 135.502 80.1643 135.502C79.6618 135.502 79.1667 135.451 78.6787 135.349C78.1909 135.254 77.7212 135.116 77.2696 134.934C76.8255 134.752 76.4067 134.533 76.0135 134.278C75.6203 134.023 75.2707 133.739 74.9649 133.426L75.8278 132.017C75.9007 131.915 75.9953 131.832 76.1118 131.766C76.2284 131.693 76.3521 131.657 76.4832 131.657C76.6653 131.657 76.8619 131.733 77.073 131.886C77.2843 132.032 77.5355 132.196 77.8267 132.378C78.1181 132.56 78.4567 132.727 78.8426 132.88C79.2358 133.026 79.7055 133.099 80.2516 133.099C81.0892 133.099 81.7372 132.902 82.196 132.509C82.6547 132.108 82.8841 131.537 82.8841 130.794C82.8841 130.379 82.7786 130.04 82.5673 129.778C82.3635 129.516 82.0904 129.297 81.7481 129.123C81.4059 128.941 81.0163 128.788 80.5793 128.664C80.1424 128.54 79.6983 128.405 79.2467 128.26C78.7953 128.114 78.351 127.939 77.9141 127.735C77.4772 127.532 77.0876 127.266 76.7453 126.938C76.4032 126.61 76.1264 126.203 75.9152 125.715C75.7113 125.219 75.6093 124.611 75.6093 123.89C75.6093 123.315 75.7223 122.754 75.948 122.208C76.181 121.662 76.516 121.178 76.9529 120.756C77.3898 120.333 77.9287 119.995 78.5695 119.74C79.2104 119.485 79.9458 119.357 80.776 119.357C81.7081 119.357 82.5673 119.503 83.3538 119.794C84.1403 120.086 84.8103 120.493 85.3636 121.018L84.6318 122.405ZM96.6217 122.405C96.5343 122.558 96.4395 122.671 96.3377 122.744C96.2429 122.809 96.1227 122.842 95.9772 122.842C95.8243 122.842 95.6567 122.787 95.4747 122.678C95.3 122.562 95.0887 122.434 94.8412 122.296C94.5935 122.157 94.3023 122.034 93.9673 121.924C93.6397 121.808 93.25 121.75 92.7986 121.75C92.3907 121.75 92.034 121.801 91.7281 121.902C91.4223 121.997 91.1637 122.132 90.9526 122.307C90.7486 122.481 90.5957 122.693 90.4938 122.94C90.3918 123.18 90.3409 123.446 90.3409 123.738C90.3409 124.109 90.4427 124.418 90.6467 124.666C90.8578 124.914 91.1346 125.125 91.4769 125.3C91.819 125.474 92.2087 125.631 92.6457 125.769C93.0826 125.908 93.5304 126.057 93.9892 126.217C94.448 126.37 94.8958 126.552 95.3327 126.763C95.7697 126.967 96.1592 127.229 96.5015 127.55C96.8437 127.863 97.1167 128.249 97.3207 128.708C97.5318 129.166 97.6375 129.723 97.6375 130.379C97.6375 131.092 97.5137 131.762 97.2661 132.389C97.0258 133.008 96.6689 133.55 96.1957 134.016C95.7295 134.475 95.158 134.839 94.4807 135.108C93.8035 135.371 93.028 135.502 92.1541 135.502C91.6517 135.502 91.1564 135.451 90.6686 135.349C90.1806 135.254 89.7109 135.116 89.2595 134.934C88.8152 134.752 88.3966 134.533 88.0033 134.278C87.6101 134.023 87.2606 133.739 86.9547 133.426L87.8177 132.017C87.8904 131.915 87.9851 131.832 88.1017 131.766C88.2181 131.693 88.342 131.657 88.473 131.657C88.655 131.657 88.8517 131.733 89.0629 131.886C89.274 132.032 89.5252 132.196 89.8166 132.378C90.1078 132.56 90.4464 132.727 90.8324 132.88C91.2257 133.026 91.6953 133.099 92.2415 133.099C93.0789 133.099 93.727 132.902 94.1858 132.509C94.6446 132.108 94.874 131.537 94.874 130.794C94.874 130.379 94.7683 130.04 94.5572 129.778C94.3532 129.516 94.0801 129.297 93.738 129.123C93.3957 128.941 93.0061 128.788 92.5692 128.664C92.1323 128.54 91.688 128.405 91.2366 128.26C90.785 128.114 90.3409 127.939 89.904 127.735C89.467 127.532 89.0774 127.266 88.7352 126.938C88.3929 126.61 88.1161 126.203 87.905 125.715C87.7011 125.219 87.5992 124.611 87.5992 123.89C87.5992 123.315 87.712 122.754 87.9378 122.208C88.1707 121.662 88.5058 121.178 88.9427 120.756C89.3797 120.333 89.9184 119.995 90.5593 119.74C91.2001 119.485 91.9357 119.357 92.7658 119.357C93.6978 119.357 94.5572 119.503 95.3437 119.794C96.1301 120.086 96.8 120.493 97.3535 121.018L96.6217 122.405Z" fill="#4387D8"/>
<path d="M25.6716 173L28.0676 180.374L35.821 180.374L29.5483 184.931L31.9443 192.305L25.6716 187.748L19.399 192.305L21.7949 184.931L15.5223 180.374L23.2757 180.374L25.6716 173Z" fill="#FFD601"/>
<path d="M52.8358 173L55.2318 180.374L62.9852 180.374L56.7125 184.931L59.1085 192.305L52.8358 187.748L46.5632 192.305L48.9591 184.931L42.6865 180.374L50.4399 180.374L52.8358 173Z" fill="white"/>
<path d="M80 173L82.3959 180.374L90.1493 180.374L83.8767 184.931L86.2726 192.305L80 187.748L73.7274 192.305L76.1233 184.931L69.8507 180.374L77.6041 180.374L80 173Z" fill="white"/>
<path d="M107.164 173L109.56 180.374L117.314 180.374L111.041 184.931L113.437 192.305L107.164 187.748L100.892 192.305L103.287 184.931L97.0149 180.374L104.768 180.374L107.164 173Z" fill="white"/>
<path d="M134.328 173L136.724 180.374L144.478 180.374L138.205 184.931L140.601 192.305L134.328 187.748L128.056 192.305L130.452 184.931L124.179 180.374L131.932 180.374L134.328 173Z" fill="white"/>
</svg>
