<svg width="161" height="195" viewBox="0 0 161 195" fill="none" xmlns="http://www.w3.org/2000/svg">
<rect width="161" height="161" rx="12.88" fill="white"/>
<path d="M51.3421 94.5029L45 22H114.691L108.342 94.4916L79.8029 102.556L51.3421 94.5029Z" fill="#D35A36"/>
<path d="M79.8456 96.3916L102.907 89.8756L108.332 27.9282H79.8456V96.3916Z" fill="#D35A36"/>
<path d="M79.8456 54.8185H68.3006L67.5032 45.7128H79.8456V36.8204H57.9683L58.1771 39.2061L60.3214 63.7106H79.8456V54.8185ZM79.8456 77.9125L79.8075 77.9229L70.0906 75.2487L69.4694 68.1568H60.7112L61.9336 82.1189L79.8054 87.1755L79.8456 87.1641V77.9125Z" fill="white"/>
<path d="M79.8156 54.8185V63.7106H90.5588L89.5461 75.2431L79.8156 77.9199V87.1711L97.7013 82.1189L97.8326 80.6165L99.8827 57.2063L100.096 54.8185H97.7446H79.8156ZM79.8156 36.8204V45.7128H100.889L101.065 43.7141L101.462 39.2061L101.671 36.8204H79.8156Z" fill="white"/>
<path d="M63.8083 119.53V135.324H60.9147V128.421H53.6379V135.324H50.7443V119.53H53.6379V126.324H60.9147V119.53H63.8083ZM78.0835 121.944H73.4108V135.324H70.528V121.944H65.8554V119.53H78.0835V121.944ZM96.9156 119.53V135.324H94.3757V125.122C94.3757 124.714 94.3971 124.274 94.44 123.8L89.7567 132.768C89.5351 133.198 89.1958 133.412 88.7385 133.412H88.3313C87.874 133.412 87.5346 133.198 87.3132 132.768L82.5763 123.768C82.5977 124.008 82.6155 124.245 82.6299 124.478C82.6441 124.711 82.6513 124.925 82.6513 125.122V135.324H80.1114V119.53H82.2869C82.4155 119.53 82.5262 119.533 82.6191 119.541C82.712 119.548 82.7941 119.566 82.8656 119.595C82.9441 119.624 83.0121 119.672 83.0693 119.737C83.1336 119.803 83.1942 119.89 83.2515 119.999L87.8919 128.77C88.0133 129.003 88.1241 129.244 88.2241 129.491C88.3313 129.739 88.4349 129.994 88.5349 130.256C88.6349 129.986 88.7385 129.728 88.8457 129.48C88.9529 129.225 89.0672 128.982 89.1887 128.748L93.7648 119.999C93.8219 119.89 93.8827 119.803 93.947 119.737C94.0113 119.672 94.0791 119.624 94.1506 119.595C94.2291 119.566 94.3149 119.548 94.4078 119.541C94.5007 119.533 94.6115 119.53 94.7401 119.53H96.9156ZM109.45 132.899V135.324H100.373V119.53H103.256V132.899H109.45Z" fill="#4387D8"/>
<path d="M26.6716 173L29.0676 180.374L36.821 180.374L30.5483 184.931L32.9443 192.305L26.6716 187.748L20.399 192.305L22.7949 184.931L16.5223 180.374L24.2757 180.374L26.6716 173Z" fill="#FFD601"/>
<path d="M53.8358 173L56.2318 180.374L63.9852 180.374L57.7125 184.931L60.1085 192.305L53.8358 187.748L47.5632 192.305L49.9591 184.931L43.6865 180.374L51.4399 180.374L53.8358 173Z" fill="white"/>
<path d="M81 173L83.3959 180.374L91.1493 180.374L84.8767 184.931L87.2726 192.305L81 187.748L74.7274 192.305L77.1233 184.931L70.8507 180.374L78.6041 180.374L81 173Z" fill="white"/>
<path d="M108.164 173L110.56 180.374L118.314 180.374L112.041 184.931L114.437 192.305L108.164 187.748L101.892 192.305L104.287 184.931L98.0149 180.374L105.768 180.374L108.164 173Z" fill="white"/>
<path d="M135.328 173L137.724 180.374L145.478 180.374L139.205 184.931L141.601 192.305L135.328 187.748L129.056 192.305L131.452 184.931L125.179 180.374L132.932 180.374L135.328 173Z" fill="white"/>
</svg>
